<svg xmlns="http://www.w3.org/2000/svg"  viewBox="0 0 24 24" width="24px" height="24px"><path d="M 20.923828 2.0292969 C 20.531418 1.9858559 20.121166 2.0448379 19.728516 2.2324219 L 2.2871094 10.564453 C 1.3678097 11.003899 0.92839974 11.959463 1.015625 12.826172 C 1.10285 13.692881 1.7243994 14.541579 2.7128906 14.789062 L 5.5234375 15.492188 C 6.58742 15.758492 7.7146666 15.562858 8.6269531 14.955078 A 0.750075 0.750075 0 0 0 8.6386719 14.947266 L 10.521484 13.642578 L 10.105469 14.074219 L 10.117188 14.064453 C 9.0016566 15.179984 9.2088567 17.083109 10.541016 17.929688 A 0.750075 0.750075 0 0 0 10.591797 17.958984 L 17.634766 21.705078 C 19.213493 22.544649 21.194513 21.49323 21.382812 19.714844 L 22.988281 4.5234375 A 0.750075 0.750075 0 0 0 22.988281 4.515625 C 23.113903 3.2157089 22.101058 2.1596185 20.923828 2.0292969 z M 20.804688 3.5 C 21.216513 3.529691 21.541816 3.8849781 21.496094 4.3691406 C 21.496094 4.3691406 21.496094 4.3710938 21.496094 4.3710938 L 19.890625 19.556641 C 19.808925 20.328254 19.025116 20.745289 18.339844 20.380859 L 11.345703 16.662109 L 11.34375 16.660156 C 10.796286 16.310145 10.717985 15.584749 11.177734 15.125 A 0.750075 0.750075 0 0 0 11.1875 15.113281 L 16.794922 9.2714844 A 0.750075 0.750075 0 0 0 15.826172 8.1367188 L 7.796875 13.707031 C 7.2351615 14.081253 6.5426894 14.200804 5.8886719 14.037109 L 3.078125 13.333984 C 2.6966162 13.238468 2.5385872 12.981573 2.5078125 12.675781 C 2.4770378 12.36999 2.5788933 12.087523 2.9335938 11.917969 L 20.375 3.5859375 C 20.521186 3.5160991 20.667412 3.490103 20.804688 3.5 z"/></svg>